<svg xmlns="http://www.w3.org/2000/svg" version="1.1" xmlnsXlink="http://www.w3.org/1999/xlink" xmlnsSvgjs="http://svgjs.dev/svgjs" width="1000" height="573" viewBox="0 0 1000 573"><g transform="matrix(1,0,0,1,-0.606060547859613,-0.10888266834422211)"><svg viewBox="0 0 396 227" data-background-color="#ffffff" preserveAspectRatio="xMidYMid meet" height="573" width="1000" xmlns="http://www.w3.org/2000/svg" xmlnsXlink="http://www.w3.org/1999/xlink"><g id="tight-bounds" transform="matrix(1,0,0,1,0.24000002304762802,0.04313723977500672)"><svg viewBox="0 0 395.52 226.91372774152666" height="226.91372774152666" width="395.52"><g><svg viewBox="0 0 395.52 226.91372774152666" height="226.91372774152666" width="395.52"><g transform="matrix(1,0,0,1,0,138.6532981472546)"><svg viewBox="0 0 395.52 88.26042959427207" height="88.26042959427207" width="395.52"><g><svg viewBox="0 0 395.52 88.26042959427207" height="88.26042959427207" width="395.52"><g><svg viewBox="0 0 395.52 88.26042959427207" height="88.26042959427207" width="395.52"><g transform="matrix(1,0,0,1,0,0)"><svg width="395.52" viewBox="2.9800000190734863 -36.040000915527344 163.66000366210938 36.53000259399414" height="88.26042959427207" data-palette-color="#35185a"><path d="M30.37-17.7L30.37-4.66Q28.56-2.08 25.33-0.79 22.09 0.49 17.8 0.49L17.8 0.49Q13.45 0.49 10.08-1.55 6.71-3.59 4.87-7.35 3.03-11.11 2.98-16.06L2.98-16.06 2.98-19.17Q2.98-27.2 6.73-31.62 10.47-36.04 17.26-36.04L17.26-36.04Q22.83-36.04 26.22-33.19 29.61-30.35 30.37-25.12L30.37-25.12 25.68-25.12Q24.37-32.18 17.29-32.18L17.29-32.18Q12.57-32.18 10.14-28.87 7.71-25.56 7.69-19.29L7.69-19.29 7.69-16.38Q7.69-10.4 10.42-6.87 13.16-3.34 17.82-3.34L17.82-3.34Q20.46-3.34 22.44-3.93 24.41-4.52 25.71-5.91L25.71-5.91 25.71-13.89 17.48-13.89 17.48-17.7 30.37-17.7ZM43.21-35.55L43.21 0 38.52 0 38.52-35.55 43.21-35.55ZM71.87-20.26L71.87-16.43 56.46-16.43 56.46-3.83 74.36-3.83 74.36 0 51.78 0 51.78-35.55 74.12-35.55 74.12-31.69 56.46-31.69 56.46-20.26 71.87-20.26ZM92.52 0L80.19 0 80.19-35.55 91.81-35.55Q97.6-35.55 100.52-33.15 103.43-30.76 103.43-26.07L103.43-26.07Q103.43-23.58 102.02-21.67 100.6-19.75 98.16-18.7L98.16-18.7Q101.04-17.9 102.71-15.64 104.39-13.38 104.39-10.25L104.39-10.25Q104.39-5.47 101.29-2.73 98.19 0 92.52 0L92.52 0ZM92.69-16.63L84.88-16.63 84.88-3.83 92.62-3.83Q95.89-3.83 97.78-5.53 99.68-7.23 99.68-10.21L99.68-10.21Q99.68-16.63 92.69-16.63L92.69-16.63ZM84.88-31.69L84.88-20.39 91.96-20.39Q95.04-20.39 96.88-21.92 98.72-23.46 98.72-26.1L98.72-26.1Q98.72-29.03 97.01-30.36 95.31-31.69 91.81-31.69L91.81-31.69 84.88-31.69ZM111.59-35.55L120.82-17.7 130.09-35.55 135.41-35.55 123.16-13.26 123.16 0 118.47 0 118.47-13.26 106.22-35.55 111.59-35.55ZM166.64-18.87L166.64-16.63Q166.64-11.4 164.88-7.51 163.12-3.61 159.9-1.56 156.68 0.49 152.38 0.49L152.38 0.49Q148.18 0.49 144.93-1.57 141.69-3.64 139.89-7.46 138.1-11.28 138.05-16.31L138.05-16.31 138.05-18.87Q138.05-24 139.83-27.93 141.61-31.86 144.87-33.95 148.13-36.04 152.33-36.04L152.33-36.04Q156.6-36.04 159.86-33.97 163.12-31.91 164.88-27.99 166.64-24.07 166.64-18.87L166.64-18.87ZM161.97-16.28L161.97-18.92Q161.97-25.24 159.44-28.63 156.9-32.01 152.33-32.01L152.33-32.01Q147.89-32.01 145.34-28.63 142.79-25.24 142.71-19.24L142.71-19.24 142.71-16.63Q142.71-10.5 145.29-6.99 147.86-3.49 152.38-3.49L152.38-3.49Q156.92-3.49 159.41-6.8 161.9-10.11 161.97-16.28L161.97-16.28Z" opacity="1" transform="matrix(1,0,0,1,0,0)" fill="#35185a" class="undefined-text-0" data-fill-palette-color="primary" id="text-0"></path></svg></g></svg></g></svg></g></svg></g><g transform="matrix(1,0,0,1,75.54431999999998,0)"><svg viewBox="0 0 244.43136 117.8171289703572" height="117.8171289703572" width="244.43136"><g><svg xmlns="http://www.w3.org/2000/svg" xmlns:xlink="http://www.w3.org/1999/xlink" version="1.1" x="8" y="0" viewBox="1.3510000705718994 24.908000946044922 97.29800415039062 50.18300247192383" enable-background="new 0 0 100 100" xmlSpace="preserve" height="117.8171289703572" width="228.43136" class="icon-icon-0" data-fill-palette-color="accent" id="icon-0"><g fill="#35185a" data-fill-palette-color="accent"><g fill="#35185a" data-fill-palette-color="accent"><g fill="#35185a" data-fill-palette-color="accent"><g fill="#35185a" data-fill-palette-color="accent"><polygon points="12.439,75.091 52.073,55.275 52.073,51.804 5.496,75.091     " fill="#35185a" data-fill-palette-color="accent"></polygon><g fill="#35185a" data-fill-palette-color="accent"><polygon points="15.913,75.091 44.309,75.091 44.309,60.892      " fill="#35185a" data-fill-palette-color="accent"></polygon><polygon points="59.835,75.091 88.234,75.091 59.835,60.892      " fill="#35185a" data-fill-palette-color="accent"></polygon></g><g fill="#35185a" data-fill-palette-color="accent"><polygon points="98.649,69.882 98.649,59.566 78.017,59.566      " fill="#35185a" data-fill-palette-color="accent"></polygon><polygon points="98.647,33.723 78.012,44.041 98.649,44.041      " fill="#35185a" data-fill-palette-color="accent"></polygon></g><polygon points="42.758,56.46 47.416,56.46 47.416,75.091 56.73,75.091 56.73,56.46 98.649,56.46 98.649,47.146 61.386,47.146           " fill="#35185a" data-fill-palette-color="accent"></polygon></g></g></g><g fill="#35185a" data-fill-palette-color="accent"><g fill="#35185a" data-fill-palette-color="accent"><path d="M1.351 24.908v25.305h34.212V24.908H1.351zM29.661 28.294l0.394 1.215h1.278l-1.034 0.75 0.396 1.215-1.033-0.75-1.034 0.75 0.396-1.215-1.033-0.75h1.276L29.661 28.294zM30.693 36.415l-1.033-0.751-1.034 0.751 0.396-1.214-1.033-0.752h1.277l0.395-1.215 0.394 1.215h1.278l-1.034 0.752L30.693 36.415zM30.693 41.324l-1.033-0.75-1.034 0.75 0.396-1.215-1.033-0.75h1.277l0.395-1.215 0.394 1.215h1.278l-1.034 0.75L30.693 41.324zM27.92 43.705l-1.032-0.75-1.033 0.75 0.395-1.215-1.033-0.752h1.276l0.396-1.214 0.395 1.214h1.276l-1.032 0.752L27.92 43.705zM25.03 41.324l-1.033-0.75-1.033 0.75 0.396-1.215-1.034-0.75h1.277l0.395-1.215 0.396 1.215h1.276l-1.032 0.75L25.03 41.324zM22.198 43.705l-1.033-0.75-1.034 0.75 0.396-1.215-1.033-0.752h1.277l0.395-1.214 0.394 1.214h1.277l-1.033 0.752L22.198 43.705zM19.275 41.324l-1.033-0.75-1.033 0.75 0.396-1.215-1.034-0.75h1.277l0.395-1.215 0.395 1.215h1.278l-1.034 0.75L19.275 41.324zM16.474 43.705l-1.034-0.75-1.032 0.75 0.395-1.215-1.033-0.752h1.277l0.394-1.214 0.396 1.214h1.276l-1.033 0.752L16.474 43.705zM13.643 41.324l-1.034-0.75-1.034 0.75 0.396-1.215-1.033-0.75h1.278l0.394-1.215 0.395 1.215h1.277l-1.033 0.75L13.643 41.324zM10.75 43.705l-1.032-0.75-1.033 0.75 0.395-1.215-1.033-0.752h1.277l0.395-1.214 0.395 1.214h1.277l-1.033 0.752L10.75 43.705zM7.918 41.324l-1.033-0.75-1.033 0.75 0.395-1.215-1.034-0.75h1.278l0.395-1.215 0.396 1.215h1.277l-1.034 0.75L7.918 41.324zM5.212 34.449h1.278l0.395-1.215 0.396 1.215h1.277l-1.034 0.752 0.395 1.214-1.033-0.751-1.033 0.751 0.395-1.214L5.212 34.449zM27.92 33.917l-1.032-0.75-1.033 0.75 0.395-1.215-1.033-0.752h1.276l0.396-1.213 0.395 1.213h1.276l-1.032 0.752L27.92 33.917zM27.92 38.779l-1.032-0.752-1.033 0.752 0.395-1.217-1.033-0.75h1.276l0.396-1.215 0.395 1.215h1.276l-1.032 0.75L27.92 38.779zM25.668 34.449l-1.032 0.752 0.394 1.214-1.033-0.751-1.033 0.751 0.396-1.214-1.034-0.752h1.277l0.395-1.215 0.396 1.215H25.668zM22.198 38.779l-1.033-0.752-1.034 0.752 0.396-1.217-1.033-0.75h1.277l0.395-1.215 0.394 1.215h1.277l-1.033 0.75L22.198 38.779zM21.802 32.703l0.396 1.215-1.033-0.75-1.034 0.75 0.396-1.215-1.033-0.752h1.277l0.395-1.213 0.394 1.213h1.277L21.802 32.703zM19.915 34.449l-1.034 0.752 0.395 1.214-1.033-0.751-1.033 0.751 0.396-1.214-1.034-0.752h1.277l0.395-1.215 0.395 1.215H19.915zM16.474 38.779l-1.034-0.752-1.032 0.752 0.395-1.217-1.033-0.75h1.277l0.394-1.215 0.396 1.215h1.276l-1.033 0.75L16.474 38.779zM16.079 32.703l0.396 1.215-1.034-0.75-1.032 0.75 0.395-1.215-1.033-0.752h1.277l0.394-1.213 0.396 1.213h1.276L16.079 32.703zM14.282 34.449l-1.033 0.752 0.396 1.214-1.034-0.751-1.035 0.751 0.396-1.214-1.033-0.752h1.278l0.394-1.215 0.395 1.215H14.282zM10.75 38.779l-1.032-0.752-1.033 0.752 0.395-1.217-1.033-0.75h1.277l0.395-1.215 0.395 1.215h1.277l-1.033 0.75L10.75 38.779zM10.356 32.849l0.394 1.215-1.032-0.75-1.033 0.75 0.395-1.215-1.033-0.75h1.277l0.395-1.215 0.395 1.215h1.277L10.356 32.849zM26.493 27.008l0.396-1.214 0.395 1.214h1.276l-1.032 0.751 0.394 1.214-1.032-0.75-1.033 0.75 0.395-1.214-1.033-0.751H26.493zM23.997 28.294l0.396 1.215h1.276l-1.032 0.75 0.394 1.215-1.033-0.75-1.033 0.75 0.396-1.215-1.034-0.75h1.277L23.997 28.294zM20.77 27.008l0.395-1.214 0.394 1.214h1.277l-1.033 0.751 0.396 1.214-1.033-0.75-1.034 0.75 0.396-1.214-1.033-0.751H20.77zM18.242 28.294l0.395 1.215h1.278l-1.034 0.75 0.395 1.215-1.033-0.75-1.033 0.75 0.396-1.215-1.034-0.75h1.277L18.242 28.294zM15.046 27.008l0.394-1.214 0.396 1.214h1.276l-1.033 0.751 0.396 1.214-1.034-0.75-1.032 0.75 0.395-1.214-1.033-0.751H15.046zM12.609 28.294l0.395 1.215h1.277l-1.033 0.75 0.396 1.215-1.034-0.75-1.034 0.75 0.396-1.215-1.033-0.75h1.278L12.609 28.294zM9.323 27.008l0.395-1.214 0.395 1.214h1.277l-1.033 0.751 0.394 1.214-1.032-0.75-1.033 0.75 0.395-1.214-1.033-0.751H9.323zM6.885 28.294l0.396 1.215h1.277l-1.034 0.75 0.395 1.215-1.033-0.75-1.033 0.75 0.395-1.215-1.034-0.75h1.278L6.885 28.294zM3.689 27.008l0.395-1.214 0.395 1.214h1.278l-1.034 0.751 0.395 1.214-1.033-0.75-1.033 0.75 0.395-1.214-1.032-0.751H3.689zM3.689 31.951l0.395-1.213 0.395 1.213h1.278l-1.034 0.752 0.395 1.215-1.033-0.75-1.033 0.75 0.395-1.215-1.032-0.752H3.689zM3.689 36.812l0.395-1.215 0.395 1.215h1.278l-1.034 0.75 0.395 1.217-1.033-0.752L3.05 38.779l0.395-1.217-1.032-0.75H3.689zM3.689 41.738l0.395-1.214 0.395 1.214h1.278L4.722 42.49l0.395 1.215-1.033-0.75-1.033 0.75 0.395-1.215-1.032-0.752H3.689zM5.117 48.645l-1.033-0.751L3.05 48.645l0.395-1.216L2.413 46.68h1.276l0.395-1.216 0.395 1.216h1.278l-1.034 0.749L5.117 48.645zM6.885 45.388l-1.033 0.751 0.395-1.215-1.034-0.751h1.278l0.395-1.214 0.396 1.214h1.277l-1.034 0.751 0.395 1.215L6.885 45.388zM10.75 48.645l-1.032-0.751-1.033 0.751 0.395-1.216L8.045 46.68h1.277l0.395-1.216 0.395 1.216h1.277l-1.033 0.749L10.75 48.645zM12.609 45.388l-1.034 0.751 0.396-1.215-1.033-0.751h1.278l0.394-1.214 0.395 1.214h1.277l-1.033 0.751 0.396 1.215L12.609 45.388zM16.474 48.645l-1.034-0.751-1.032 0.751 0.395-1.216-1.033-0.749h1.277l0.394-1.216 0.396 1.216h1.276l-1.033 0.749L16.474 48.645zM18.242 45.299l-1.033 0.751 0.396-1.215-1.034-0.752h1.277l0.395-1.214 0.395 1.214h1.278l-1.034 0.752 0.395 1.215L18.242 45.299zM22.198 48.735l-1.033-0.751-1.034 0.751 0.396-1.216-1.033-0.75h1.277l0.395-1.215 0.394 1.215h1.277l-1.033 0.75L22.198 48.735zM23.997 45.388l-1.033 0.752 0.396-1.216-1.034-0.751h1.277l0.395-1.214 0.396 1.214h1.276l-1.032 0.751 0.394 1.216L23.997 45.388zM27.92 48.645l-1.032-0.751-1.033 0.751 0.395-1.216-1.033-0.749h1.276l0.396-1.216 0.395 1.216h1.276l-1.032 0.749L27.92 48.645zM29.661 45.388l-1.034 0.752 0.396-1.216-1.033-0.751h1.276l0.396-1.214 0.394 1.214h1.278l-1.034 0.751 0.396 1.216L29.661 45.388zM33.525 48.645l-1.034-0.751-1.034 0.751 0.396-1.216-1.033-0.749h1.278l0.394-1.216 0.395 1.216h1.277l-1.033 0.749L33.525 48.645zM33.129 42.49l0.396 1.215-1.034-0.75-1.034 0.75 0.396-1.215-1.033-0.752h1.278l0.394-1.214 0.395 1.214h1.277L33.129 42.49zM33.129 37.562l0.396 1.217-1.034-0.752-1.034 0.752 0.396-1.217-1.033-0.75h1.278l0.394-1.215 0.395 1.215h1.277L33.129 37.562zM33.129 32.703l0.396 1.215-1.034-0.75-1.034 0.75 0.396-1.215-1.033-0.752h1.278l0.394-1.213 0.395 1.213h1.277L33.129 32.703zM33.129 27.759l0.396 1.214-1.034-0.75-1.034 0.75 0.396-1.214-1.033-0.751h1.278l0.394-1.214 0.395 1.214h1.277L33.129 27.759z" fill="#35185a" data-fill-palette-color="accent"></path><polygon points="8.01,68.148 1.351,68.148 1.351,71.478    " fill="#35185a" data-fill-palette-color="accent"></polygon><polygon points="1.351,60.974 1.351,64.589 15.127,64.589 22.357,60.974    " fill="#35185a" data-fill-palette-color="accent"></polygon><polygon points="1.351,53.8 1.351,57.416 29.473,57.416 36.704,53.8    " fill="#35185a" data-fill-palette-color="accent"></polygon><polygon points="35.584,46.597 35.584,50.212 43.88,50.212 51.109,46.597    " fill="#35185a" data-fill-palette-color="accent"></polygon><polygon points="35.579,39.256 35.579,42.872 58.561,42.872 65.791,39.256    " fill="#35185a" data-fill-palette-color="accent"></polygon><polygon points="35.579,32.083 35.579,35.697 72.909,35.697 80.139,32.083    " fill="#35185a" data-fill-palette-color="accent"></polygon></g></g><polygon points="87.259,28.522 94.489,24.908 35.579,24.908 35.579,28.522  " fill="#35185a" data-fill-palette-color="accent"></polygon></g></svg></g></svg></g><g><rect width="75.54431999999998" height="7.959416625574797" y="108.8577123447824" x="319.97568" fill="#35185a" data-fill-palette-color="accent"></rect><rect width="75.54431999999998" height="7.959416625574797" y="108.8577123447824" x="0" fill="#35185a" data-fill-palette-color="accent"></rect><rect width="75.54431999999998" height="7.959416625574797" y="92.9388790936328" x="319.97568" fill="#35185a" data-fill-palette-color="accent"></rect><rect width="75.54431999999998" height="7.959416625574797" y="92.9388790936328" x="0" fill="#35185a" data-fill-palette-color="accent"></rect></g></svg></g><defs></defs></svg><rect width="395.52" height="226.91372774152666" fill="none" stroke="none" visibility="hidden"></rect></g></svg></g></svg>