<svg xmlns="http://www.w3.org/2000/svg" version="1.1" xmlnsXlink="http://www.w3.org/1999/xlink" xmlnsSvgjs="http://svgjs.dev/svgjs" width="1000" height="348" viewBox="0 0 1000 348"><g transform="matrix(1,0,0,1,-0.6060606060606233,0.09208161770723677)"><svg viewBox="0 0 396 138" data-background-color="#ffffff" preserveAspectRatio="xMidYMid meet" height="348" width="1000" xmlns="http://www.w3.org/2000/svg" xmlnsXlink="http://www.w3.org/1999/xlink"><defs></defs><g id="tight-bounds" transform="matrix(1,0,0,1,0.2400000000000091,-0.03651512426321801)"><svg viewBox="0 0 395.52 138.0730302485264" height="138.0730302485264" width="395.52"><g><svg viewBox="0 0 653.1337087307654 228.0040208381756" height="138.0730302485264" width="395.52"><g transform="matrix(1,0,0,1,257.6137087307655,59.86105506536391)"><svg viewBox="0 0 395.52 108.28191070744778" height="108.28191070744778" width="395.52"><g><svg viewBox="0 0 395.52 108.28191070744778" height="108.28191070744778" width="395.52"><g><svg viewBox="0 0 395.52 62.71219415059116" height="62.71219415059116" width="395.52"><g transform="matrix(1,0,0,1,0,0)"><svg width="395.52" viewBox="4.880000114440918 -31.850000381469727 200.86000061035156 31.850000381469727" height="62.71219415059116" data-palette-color="#6d285f"><path d="M4.88-31.85L9.63-31.85 9.63-4.15 23.35-4.15 23.35 0 4.88 0 4.88-31.85ZM48.77 0L28.77 0 28.77-31.85 48.77-31.85 48.77-27.75 33.52-27.75 33.52-18.05 47.87-18.05 47.87-13.95 33.52-13.95 33.52-4.15 48.77-4.15 48.77 0ZM58.8 0L53.8 0 64.7-31.85 70.57-31.85 81.15 0 76.15 0 73.67-7.6 61.37-7.6 58.8 0ZM67.55-26.13L62.57-11.25 72.5-11.25 67.55-26.13ZM91.99 0L87.24 0 87.24-31.85 98.64-31.85Q104.22-31.85 107.13-29.21 110.04-26.58 110.04-22.28L110.04-22.28Q110.04-18.03 107.13-15.4 104.22-12.78 98.64-12.78L98.64-12.78 91.99-12.78 91.99 0ZM110.99 0L104.82 0 95.99-14.65 101.12-14.65 110.99 0ZM91.99-27.75L91.99-16.03 98.22-16.03Q101.62-16.03 103.39-17.66 105.17-19.3 105.17-21.9L105.17-21.9Q105.17-24.58 103.51-26.16 101.84-27.75 98.64-27.75L98.64-27.75 91.99-27.75ZM118.44 0L118.44-31.85 123.87-31.85 139.29-7.15 138.92-7.15 138.92-31.85 143.67-31.85 143.67 0 138.62 0 122.44-25.8 123.19-25.8 123.19 0 118.44 0ZM173.36 0L153.36 0 153.36-31.85 173.36-31.85 173.36-27.75 158.11-27.75 158.11-18.05 172.46-18.05 172.46-13.95 158.11-13.95 158.11-4.15 173.36-4.15 173.36 0ZM183.39 0L178.39 0 189.29-31.85 195.16-31.85 205.74 0 200.74 0 198.26-7.6 185.96-7.6 183.39 0ZM192.14-26.13L187.16-11.25 197.09-11.25 192.14-26.13Z" opacity="1" transform="matrix(1,0,0,1,0,0)" fill="#6d285f" class="undefined-text-0" data-fill-palette-color="primary" id="text-0"></path></svg></g></svg></g><g transform="matrix(1,0,0,1,0,77.51703809688613)"><svg viewBox="0 0 232.209792 30.764872610561664" height="30.764872610561664" width="232.209792"><g transform="matrix(1,0,0,1,0,0)"><svg width="232.209792" viewBox="4.650000095367432 -35.099998474121094 268.6700134277344 35.5" height="30.764872610561664" data-palette-color="#ef85d1"><g class="undefined-text-1" data-fill-palette-color="secondary" id="text-1"><path d="M14.3-28.7L8.7-28.6 8.6-17.45 14-17.35 19.2-17.5 19.5-17.1 19.15-14.05 13.6-14.2 8.55-14.15 8.5-10 8.7 0 4.65 0 4.9-9.65 4.65-32.05 21.7-32.05 22-31.65 21.65-28.45 14.3-28.7ZM36.2-22.95Q36.8-22.95 37.5-22.85L37.5-22.85 37.5-19 37.05-18.85Q36.2-19.1 35.2-19.1L35.2-19.1Q33.55-19.1 32.17-17.78 30.8-16.45 29.45-13.55L29.45-13.55 29.4-10.05 29.65 0 25.7 0 25.95-9.7 25.75-22.65 29.5-23 29.45-18.3 29.75-18.3Q31.15-20.8 32.85-21.88 34.55-22.95 36.2-22.95L36.2-22.95ZM58-11.65L43.65-11.6 43.65-11.5Q43.65-7.3 45.55-5.05 47.45-2.8 50.95-2.8L50.95-2.8Q52.7-2.8 54.45-3.38 56.2-3.95 57.65-5L57.65-5 58.05-4.7 57.45-1.3Q53.95 0.4 50.45 0.4L50.45 0.4Q45.55 0.4 42.75-2.73 39.95-5.85 39.95-11.3L39.95-11.3Q39.95-16.8 42.75-20.05 45.55-23.3 50.3-23.3L50.3-23.3Q54.3-23.3 56.5-21.03 58.7-18.75 58.7-14.7L58.7-14.7Q58.7-13.35 58.5-12.15L58.5-12.15 58-11.65ZM50.3-20.5Q47.8-20.5 46.12-18.88 44.45-17.25 43.9-14.3L43.9-14.3 54.95-14.5 55.05-15.2Q55.05-17.75 53.82-19.13 52.6-20.5 50.3-20.5L50.3-20.5ZM81.04-11.65L66.69-11.6 66.69-11.5Q66.69-7.3 68.59-5.05 70.49-2.8 73.99-2.8L73.99-2.8Q75.74-2.8 77.49-3.38 79.24-3.95 80.69-5L80.69-5 81.09-4.7 80.49-1.3Q76.99 0.4 73.49 0.4L73.49 0.4Q68.59 0.4 65.79-2.73 62.99-5.85 62.99-11.3L62.99-11.3Q62.99-16.8 65.79-20.05 68.59-23.3 73.34-23.3L73.34-23.3Q77.34-23.3 79.54-21.03 81.74-18.75 81.74-14.7L81.74-14.7Q81.74-13.35 81.54-12.15L81.54-12.15 81.04-11.65ZM73.34-20.5Q70.84-20.5 69.17-18.88 67.49-17.25 66.94-14.3L66.94-14.3 77.99-14.5 78.09-15.2Q78.09-17.75 76.87-19.13 75.64-20.5 73.34-20.5L73.34-20.5Z" fill="#6d285f" data-fill-palette-color="primary"></path><path d="M101.89-11.65L87.54-11.6 87.54-11.5Q87.54-7.3 89.44-5.05 91.34-2.8 94.84-2.8L94.84-2.8Q96.59-2.8 98.34-3.38 100.09-3.95 101.54-5L101.54-5 101.94-4.7 101.34-1.3Q97.84 0.4 94.34 0.4L94.34 0.4Q89.44 0.4 86.64-2.73 83.84-5.85 83.84-11.3L83.84-11.3Q83.84-16.8 86.64-20.05 89.44-23.3 94.19-23.3L94.19-23.3Q98.19-23.3 100.39-21.03 102.59-18.75 102.59-14.7L102.59-14.7Q102.59-13.35 102.39-12.15L102.39-12.15 101.89-11.65ZM94.19-20.5Q91.69-20.5 90.02-18.88 88.34-17.25 87.79-14.3L87.79-14.3 98.84-14.5 98.94-15.2Q98.94-17.75 97.72-19.13 96.49-20.5 94.19-20.5L94.19-20.5ZM126.29-35.1L125.94-10.05 126.09-4.9Q126.14-3.85 126.44-3.43 126.74-3 127.54-3L127.54-3Q128.34-3 129.24-3.3L129.24-3.3 129.64-2.95 129.24-0.7Q127.89 0.15 126.44 0.3L126.44 0.3Q124.89 0.15 124.01-0.75 123.14-1.65 122.94-3.2L122.94-3.2 122.59-3.2Q121.09-1.9 119.89-1.13 118.69-0.35 117.14 0.25L117.14 0.25Q112.19 0.25 109.54-2.78 106.89-5.8 106.89-11.4L106.89-11.4Q106.89-17.05 109.84-20.18 112.79-23.3 117.99-23.3L117.99-23.3Q120.34-23.3 122.39-22.8L122.39-22.8 122.34-34.75 126.29-35.1ZM117.54-20.5Q114.34-20.5 112.49-18.32 110.64-16.15 110.64-12.05L110.64-12.05Q110.64-7.8 112.31-5.45 113.99-3.1 116.94-3.1L116.94-3.1Q118.34-3.1 119.66-3.8 120.99-4.5 122.44-6.15L122.44-6.15 122.54-9.75 122.39-19.25Q119.74-20.5 117.54-20.5L117.54-20.5ZM154.79-3.3L155.19-2.95 154.79-0.7Q153.34 0.15 151.94 0.3L151.94 0.3Q150.49 0.1 149.61-0.73 148.74-1.55 148.39-3.2L148.39-3.2 148.09-3.2Q145.09-0.5 141.89 0.3L141.89 0.3Q138.19 0.3 136.26-1.45 134.34-3.2 134.39-6.45L134.39-6.45 134.44-12.8 134.29-22.65 138.29-23 137.99-7.4Q137.99-5.35 138.96-4.2 139.94-3.05 141.84-3.05L141.84-3.05Q144.94-3.05 148.04-6.05L148.04-6.05 148.04-22.65 151.84-23 151.59-4.9Q151.59-3.85 151.91-3.43 152.24-3 153.04-3L153.04-3Q153.84-3 154.79-3.3L154.79-3.3ZM168.43-23.3Q169.98-23.3 171.66-22.93 173.33-22.55 174.58-21.95L174.58-21.95 173.88-18.5 173.43-18.35Q170.83-20.05 168.28-20.05L168.28-20.05Q165.33-20.05 163.68-17.8 162.03-15.55 162.03-11.5L162.03-11.5Q162.03-7.45 163.76-5.13 165.48-2.8 168.53-2.8L168.53-2.8Q169.88-2.8 171.36-3.25 172.83-3.7 174.13-4.5L174.13-4.5 174.58-4.25 174.13-0.9Q171.08 0.4 168.03 0.4L168.03 0.4Q163.48 0.4 160.88-2.73 158.28-5.85 158.28-11.3L158.28-11.3Q158.28-16.85 161.01-20.08 163.73-23.3 168.43-23.3L168.43-23.3ZM186.98-23.3Q190.23-23.3 192.11-21.7 193.98-20.1 193.98-17.3L193.98-17.3Q193.98-16.45 193.68-11.15L193.68-11.15Q193.38-5.85 193.38-4.95L193.38-4.95Q193.38-3.85 193.73-3.43 194.08-3 194.93-3L194.93-3Q195.68-3 196.63-3.3L196.63-3.3 197.03-2.95 196.63-0.7Q195.18 0.15 193.78 0.3L193.78 0.3Q192.23 0.15 191.31-0.8 190.38-1.75 190.33-3.4L190.33-3.4 189.98-3.4Q187.28-0.65 184.63 0.35L184.63 0.35Q181.28 0.35 179.41-1.33 177.53-3 177.53-5.9L177.53-5.9Q177.53-8.1 178.71-9.4 179.88-10.7 182.18-11.25L182.18-11.25 190.28-13.15 190.33-16.4Q190.33-18.35 189.31-19.4 188.28-20.45 186.38-20.45L186.38-20.45Q184.68-20.45 182.98-19.65 181.28-18.85 179.33-17.15L179.33-17.15 178.93-17.35 178.43-20.2Q182.58-23.3 186.98-23.3L186.98-23.3ZM190.23-10.6L182.98-8.85Q181.98-8.55 181.53-8.03 181.08-7.5 181.08-6.45L181.08-6.45Q181.08-4.8 182.01-3.88 182.93-2.95 184.48-2.95L184.48-2.95Q187.23-2.95 190.08-6.5L190.08-6.5 190.23-10.6ZM209.73-3.05Q211.38-3.05 213.33-4.05L213.33-4.05 213.78-3.75 213.38-1.15Q210.68 0.1 208.38 0.3L208.38 0.3Q205.53-0.25 204.28-1.8 203.03-3.35 203.03-6.3L203.03-6.3 203.18-9.85 203.13-20.2 199.98-20.2 199.78-20.5 200.03-22.85 203.08-22.85 203.08-26.55 206.53-28.05 206.93-27.7 206.83-22.85 213.63-22.85 213.83-22.55 213.58-20.2 206.83-20.2 206.58-6.65Q206.53-4.65 207.28-3.85 208.03-3.05 209.73-3.05L209.73-3.05ZM218.53 0L218.73-9.7 218.58-22.65 222.43-23 222.33-10.05 222.43 0 218.53 0ZM220.58-33.15Q221.58-33.15 222.18-32.55 222.78-31.95 222.78-30.9L222.78-30.9Q222.78-29.8 222.15-29.15 221.53-28.5 220.43-28.5L220.43-28.5Q219.38-28.5 218.8-29.1 218.23-29.7 218.23-30.8L218.23-30.8Q218.23-31.85 218.85-32.5 219.48-33.15 220.58-33.15L220.58-33.15ZM239.12-23.3Q243.77-23.3 246.35-20.28 248.92-17.25 248.92-11.75L248.92-11.75Q248.92-5.95 246.22-2.78 243.52 0.4 238.52 0.4L238.52 0.4Q233.82 0.4 231.25-2.63 228.67-5.65 228.67-11.15L228.67-11.15Q228.67-16.95 231.4-20.13 234.12-23.3 239.12-23.3L239.12-23.3ZM238.87-20.5Q235.72-20.5 234.07-18.35 232.42-16.2 232.42-12.05L232.42-12.05Q232.42-7.25 234.05-4.85 235.67-2.45 238.77-2.45L238.77-2.45Q241.92-2.45 243.57-4.55 245.22-6.65 245.22-10.85L245.22-10.85Q245.22-15.6 243.6-18.05 241.97-20.5 238.87-20.5L238.87-20.5ZM269.32 0L269.57-15.55Q269.62-17.6 268.62-18.75 267.62-19.9 265.67-19.9L265.67-19.9Q262.52-19.9 258.87-16.35L258.87-16.35 258.87-10.05 259.07 0 255.12 0 255.37-9.7 255.17-22.65 258.92-23 258.92-19.65 259.22-19.65Q262.32-22.4 265.57-23.2L265.57-23.2Q269.32-23.2 271.3-21.45 273.27-19.7 273.22-16.45L273.22-16.45 273.12-9.95 273.32 0 269.32 0Z" fill="#ef85d1" data-fill-palette-color="secondary"></path></g></svg></g></svg></g></svg></g></svg></g><g><svg viewBox="0 0 228.0040208381756 228.0040208381756" height="228.0040208381756" width="228.0040208381756"><g><svg></svg></g><g id="icon-0"><svg viewBox="0 0 228.0040208381756 228.0040208381756" height="228.0040208381756" width="228.0040208381756"><g><path d="M0 114.002c0-62.962 51.04-114.002 114.002-114.002 62.962 0 114.002 51.04 114.002 114.002 0 62.962-51.04 114.002-114.002 114.002-62.962 0-114.002-51.04-114.002-114.002zM114.002 222.349c59.838 0 108.347-48.508 108.347-108.347 0-59.838-48.508-108.347-108.347-108.347-59.838 0-108.347 48.508-108.347 108.347 0 59.838 48.508 108.347 108.347 108.347z" data-fill-palette-color="accent" fill="#ef85d1" stroke="transparent"></path></g><g transform="matrix(1,0,0,1,47.41202682285227,74.99658623829522)"><svg viewBox="0 0 133.17996719247105 78.01084836158515" height="78.01084836158515" width="133.17996719247105"><g><svg xmlns="http://www.w3.org/2000/svg" viewBox="2.786472797393799 16.11427116394043 64.48552703857422 37.772727966308594" xmlSpace="preserve" x="0" y="0" height="78.01084836158515" width="133.17996719247105" class="icon-x-0" data-fill-palette-color="accent" id="x-0"><path d="M57.41 40.919h-2.051a1 1 0 1 0 0 2h2.051a1 1 0 1 0 0-2zM66.272 41.005h-2.051a1 1 0 1 0 0 2h2.051a1 1 0 1 0 0-2zM60.915 43.252a1 1 0 0 0-1 1v2.051a1 1 0 1 0 2 0v-2.051a1 1 0 0 0-1-1z" fill="#ef85d1" data-fill-palette-color="accent"></path><path d="M60.896 40.368a1 1 0 0 0 1-1V27.787c0-0.417-0.259-0.79-0.649-0.937L32.691 16.178a0.993 0.993 0 0 0-0.7 0L3.436 26.851a1 1 0 0 0-0.026 1.863l9.667 3.921V48.07c0 3.997 9.991 5.817 19.274 5.817 9.283 0 19.274-1.82 19.274-5.817v-15.2l5.144-2.021a0.998 0.998 0 0 0 0.565-1.296 0.998 0.998 0 0 0-1.296-0.565l-23.692 9.304L6.541 27.825l25.8-9.644 27.556 10.3v10.887a0.998 0.998 0 0 0 0.999 1z m-28.555 0c0.124 0 0.248-0.023 0.366-0.069l16.919-6.645v14.415c0 1.296-6.097 3.817-17.274 3.817s-17.274-2.521-17.274-3.817V33.446l16.887 6.849c0.12 0.049 0.248 0.073 0.376 0.073z" fill="#ef85d1" data-fill-palette-color="accent"></path></svg></g></svg></g></svg></g></svg></g></svg></g></svg><rect width="395.52" height="138.0730302485264" fill="none" stroke="none" visibility="hidden"></rect></g></svg></g></svg>