<svg xmlns="http://www.w3.org/2000/svg" version="1.1" xmlnsXlink="http://www.w3.org/1999/xlink" xmlnsSvgjs="http://svgjs.dev/svgjs" width="1000" height="323" viewBox="0 0 1000 323"><g transform="matrix(1,0,0,1,-0.6060606060606233,0.5570360224735964)"><svg viewBox="0 0 396 128" data-background-color="#0b022d" preserveAspectRatio="xMidYMid meet" height="323" width="1000" xmlns="http://www.w3.org/2000/svg" xmlnsXlink="http://www.w3.org/1999/xlink"><g id="tight-bounds" transform="matrix(1,0,0,1,0.2400000000000091,-0.22074492531461942)"><svg viewBox="0 0 395.52 128.4412699306319" height="128.4412699306319" width="395.52"><g><svg viewBox="0 0 645.970527564645 209.77264082262153" height="128.4412699306319" width="395.52"><g transform="matrix(1,0,0,1,250.45052756464491,61.8092109825427)"><svg viewBox="0 0 395.52 86.15421885753612" height="86.15421885753612" width="395.52"><g><svg viewBox="0 0 395.52 86.15421885753612" height="86.15421885753612" width="395.52"><g><svg viewBox="0 0 395.52 86.15421885753612" height="86.15421885753612" width="395.52"><g transform="matrix(1,0,0,1,0,0)"><svg width="395.52" viewBox="2.49 -30.66 141.88 30.9" height="86.15421885753612" data-palette-color="#f7fff7"><path d="M15.87 0.24Q9.33 0.24 5.91-3.53 2.49-7.3 2.49-14.94L2.49-14.94Q2.49-30.66 16.53-30.66L16.53-30.66Q18.58-30.66 20.51-30.24 22.44-29.81 23.63-29.17 24.83-28.54 24.83-27.95L24.83-27.95Q24.83-27.59 24.57-26.98 24.32-26.37 23.97-25.9 23.63-25.44 23.36-25.44L23.36-25.44Q23.24-25.44 22.68-25.76L22.68-25.76Q21.41-26.44 20.02-26.9 18.63-27.37 16.63-27.37L16.63-27.37Q11.11-27.37 8.76-24.33 6.42-21.29 6.42-15.33L6.42-15.33Q6.42-9.72 8.61-6.38 10.79-3.05 16.16-3.05L16.16-3.05Q17.8-3.05 19.32-3.21 20.85-3.37 21.75-3.61L21.75-3.61 21.75-12.38 16.67-12.38Q16.21-12.38 16-12.68 15.8-12.99 15.8-13.67L15.8-13.67 15.8-14.38Q15.8-15.06 16-15.37 16.21-15.67 16.67-15.67L16.67-15.67 24.27-15.67Q24.95-15.67 25.27-15.37 25.59-15.06 25.59-14.38L25.59-14.38 25.59-2.88Q25.59-1.2 22.85-0.48 20.12 0.24 15.87 0.24L15.87 0.24ZM35.13 0.07Q33.37 0.07 33.37-0.88L33.37-0.88 33.37-29.52Q33.37-30.49 35.13-30.49L35.13-30.49 35.47-30.49Q37.2-30.49 37.2-29.52L37.2-29.52 37.2-0.88Q37.2 0.07 35.47 0.07L35.47 0.07 35.13 0.07ZM46.94 0Q46.26 0 45.94-0.32 45.62-0.63 45.62-1.29L45.62-1.29 45.62-29.08Q45.62-29.76 45.94-30.07 46.26-30.37 46.94-30.37L46.94-30.37 62.08-30.37Q62.54-30.37 62.75-30.08 62.96-29.79 62.96-29.08L62.96-29.08 62.96-28.37Q62.96-27.71 62.75-27.39 62.54-27.08 62.08-27.08L62.08-27.08 49.46-27.08 49.46-17.19 60.79-17.19Q61.25-17.19 61.46-16.87 61.66-16.55 61.66-15.87L61.66-15.87 61.66-15.21Q61.66-14.53 61.46-14.22 61.25-13.92 60.79-13.92L60.79-13.92 49.46-13.92 49.46-3.3 62.13-3.3Q62.59-3.3 62.8-2.99 63.01-2.69 63.01-2L63.01-2 63.01-1.29Q63.01-0.63 62.8-0.32 62.59 0 62.13 0L62.13 0 46.94 0ZM70.65 0Q69.96 0 69.65-0.32 69.33-0.63 69.33-1.29L69.33-1.29 69.33-29.08Q69.33-29.76 69.65-30.07 69.96-30.37 70.65-30.37L70.65-30.37 78.41-30.37Q81.58-30.37 83.76-29.42 85.93-28.47 87.03-26.73 88.13-25 88.13-22.71L88.13-22.71Q88.13-21.29 87.47-19.89 86.81-18.48 85.71-17.47 84.61-16.46 83.37-16.11L83.37-16.11 83.37-15.94Q83.37-16.11 85.05-15.3 86.74-14.48 88.09-12.88 89.45-11.28 89.45-8.74L89.45-8.74Q89.45 0 78.12 0L78.12 0 70.65 0ZM73.16-17.29L78.22-17.29Q79.92-17.29 81.29-17.96 82.66-18.63 83.43-19.79 84.2-20.95 84.2-22.36L84.2-22.36Q84.2-24.8 82.73-25.94 81.27-27.08 78.04-27.08L78.04-27.08 73.16-27.08 73.16-17.29ZM73.16-3.3L79.51-3.3Q82.37-3.3 83.93-4.8 85.49-6.3 85.49-8.91L85.49-8.91Q85.49-11.33 83.78-12.66 82.07-13.99 78.75-13.99L78.75-13.99 73.16-13.99 73.16-3.3ZM102.8 0.07Q101.06 0.07 101.06-0.88L101.06-0.88 101.06-15.58 91.98-28.96Q91.64-29.42 91.64-29.74L91.64-29.74Q91.64-30.49 93.64-30.49L93.64-30.49 94.11-30.49Q94.84-30.49 95.29-30.35 95.74-30.2 95.99-29.83L95.99-29.83 103.12-19.17 110.39-29.86Q110.78-30.49 112.34-30.49L112.34-30.49 112.64-30.49Q113.54-30.44 113.94-30.26 114.35-30.08 114.35-29.74L114.35-29.74Q114.35-29.52 113.98-28.96L113.98-28.96 104.9-15.45 104.9-0.88Q104.9 0.07 103.14 0.07L103.14 0.07 102.8 0.07ZM130.97 0.24Q124.45 0.24 121.03-3.71 117.61-7.67 117.61-15.28L117.61-15.28Q117.61-22.88 121.02-26.77 124.43-30.66 130.97-30.66L130.97-30.66Q137.54-30.66 140.95-26.77 144.37-22.88 144.37-15.28L144.37-15.28Q144.37-7.67 140.95-3.71 137.54 0.24 130.97 0.24L130.97 0.24ZM130.97-3.05Q135.56-3.05 138-6.19 140.44-9.33 140.44-15.28L140.44-15.28Q140.44-21.24 138.01-24.3 135.58-27.37 130.97-27.37L130.97-27.37Q126.38-27.37 123.96-24.3 121.55-21.24 121.55-15.28L121.55-15.28Q121.55-9.3 123.96-6.18 126.38-3.05 130.97-3.05L130.97-3.05Z" opacity="1" transform="matrix(1,0,0,1,0,0)" fill="#f7fff7" class="undefined-text-0" data-fill-palette-color="primary" id="text-0"></path></svg></g></svg></g></svg></g></svg></g><g><svg viewBox="0 0 209.77264082262153 209.77264082262153" height="209.77264082262153" width="209.77264082262153"><g><svg></svg></g><g id="icon-0"><svg viewBox="0 0 209.77264082262153 209.77264082262153" height="209.77264082262153" width="209.77264082262153"><g><path d="M0 104.886c0-57.927 46.959-104.886 104.886-104.886 57.927 0 104.886 46.959 104.887 104.886 0 57.927-46.959 104.886-104.887 104.887-57.927 0-104.886-46.959-104.886-104.887zM104.886 202.003c53.636 0 97.117-43.481 97.117-97.117 0-53.636-43.481-97.117-97.117-97.117-53.636 0-97.117 43.481-97.117 97.117 0 53.636 43.481 97.117 97.117 97.117z" data-fill-palette-color="accent" fill="#ee7ddc" stroke="transparent"></path></g><g transform="matrix(1,0,0,1,44.18879983945893,73.58060318323578)"><svg viewBox="0 0 121.39504114370366 62.61143445614997" height="62.61143445614997" width="121.39504114370366"><g><svg xmlns="http://www.w3.org/2000/svg" xmlnsXlink="http://www.w3.org/1999/xlink" version="1.1" x="0" y="0" viewBox="1.351 24.908 97.298 50.18299999999999" enable-background="new 0 0 100 100" xmlSpace="preserve" height="62.61143445614997" width="121.39504114370366" class="icon-wb-0" data-fill-palette-color="accent" id="wb-0"><g fill="#ee7ddc" data-fill-palette-color="accent"><g fill="#ee7ddc" data-fill-palette-color="accent"><g fill="#ee7ddc" data-fill-palette-color="accent"><g fill="#ee7ddc" data-fill-palette-color="accent"><polygon points="12.439,75.091 52.073,55.275 52.073,51.804 5.496,75.091     " fill="#ee7ddc" data-fill-palette-color="accent"></polygon><g fill="#ee7ddc" data-fill-palette-color="accent"><polygon points="15.913,75.091 44.309,75.091 44.309,60.892      " fill="#ee7ddc" data-fill-palette-color="accent"></polygon><polygon points="59.835,75.091 88.234,75.091 59.835,60.892      " fill="#ee7ddc" data-fill-palette-color="accent"></polygon></g><g fill="#ee7ddc" data-fill-palette-color="accent"><polygon points="98.649,69.882 98.649,59.566 78.017,59.566      " fill="#ee7ddc" data-fill-palette-color="accent"></polygon><polygon points="98.647,33.723 78.012,44.041 98.649,44.041      " fill="#ee7ddc" data-fill-palette-color="accent"></polygon></g><polygon points="42.758,56.46 47.416,56.46 47.416,75.091 56.73,75.091 56.73,56.46 98.649,56.46 98.649,47.146 61.386,47.146           " fill="#ee7ddc" data-fill-palette-color="accent"></polygon></g></g></g><g fill="#ee7ddc" data-fill-palette-color="accent"><g fill="#ee7ddc" data-fill-palette-color="accent"><path d="M1.351 24.908v25.305h34.212V24.908H1.351zM29.661 28.294l0.394 1.215h1.278l-1.034 0.75 0.396 1.215-1.033-0.75-1.034 0.75 0.396-1.215-1.033-0.75h1.276L29.661 28.294zM30.693 36.415l-1.033-0.751-1.034 0.751 0.396-1.214-1.033-0.752h1.277l0.395-1.215 0.394 1.215h1.278l-1.034 0.752L30.693 36.415zM30.693 41.324l-1.033-0.75-1.034 0.75 0.396-1.215-1.033-0.75h1.277l0.395-1.215 0.394 1.215h1.278l-1.034 0.75L30.693 41.324zM27.92 43.705l-1.032-0.75-1.033 0.75 0.395-1.215-1.033-0.752h1.276l0.396-1.214 0.395 1.214h1.276l-1.032 0.752L27.92 43.705zM25.03 41.324l-1.033-0.75-1.033 0.75 0.396-1.215-1.034-0.75h1.277l0.395-1.215 0.396 1.215h1.276l-1.032 0.75L25.03 41.324zM22.198 43.705l-1.033-0.75-1.034 0.75 0.396-1.215-1.033-0.752h1.277l0.395-1.214 0.394 1.214h1.277l-1.033 0.752L22.198 43.705zM19.275 41.324l-1.033-0.75-1.033 0.75 0.396-1.215-1.034-0.75h1.277l0.395-1.215 0.395 1.215h1.278l-1.034 0.75L19.275 41.324zM16.474 43.705l-1.034-0.75-1.032 0.75 0.395-1.215-1.033-0.752h1.277l0.394-1.214 0.396 1.214h1.276l-1.033 0.752L16.474 43.705zM13.643 41.324l-1.034-0.75-1.034 0.75 0.396-1.215-1.033-0.75h1.278l0.394-1.215 0.395 1.215h1.277l-1.033 0.75L13.643 41.324zM10.75 43.705l-1.032-0.75-1.033 0.75 0.395-1.215-1.033-0.752h1.277l0.395-1.214 0.395 1.214h1.277l-1.033 0.752L10.75 43.705zM7.918 41.324l-1.033-0.75-1.033 0.75 0.395-1.215-1.034-0.75h1.278l0.395-1.215 0.396 1.215h1.277l-1.034 0.75L7.918 41.324zM5.212 34.449h1.278l0.395-1.215 0.396 1.215h1.277l-1.034 0.752 0.395 1.214-1.033-0.751-1.033 0.751 0.395-1.214L5.212 34.449zM27.92 33.917l-1.032-0.75-1.033 0.75 0.395-1.215-1.033-0.752h1.276l0.396-1.213 0.395 1.213h1.276l-1.032 0.752L27.92 33.917zM27.92 38.779l-1.032-0.752-1.033 0.752 0.395-1.217-1.033-0.75h1.276l0.396-1.215 0.395 1.215h1.276l-1.032 0.75L27.92 38.779zM25.668 34.449l-1.032 0.752 0.394 1.214-1.033-0.751-1.033 0.751 0.396-1.214-1.034-0.752h1.277l0.395-1.215 0.396 1.215H25.668zM22.198 38.779l-1.033-0.752-1.034 0.752 0.396-1.217-1.033-0.75h1.277l0.395-1.215 0.394 1.215h1.277l-1.033 0.75L22.198 38.779zM21.802 32.703l0.396 1.215-1.033-0.75-1.034 0.75 0.396-1.215-1.033-0.752h1.277l0.395-1.213 0.394 1.213h1.277L21.802 32.703zM19.915 34.449l-1.034 0.752 0.395 1.214-1.033-0.751-1.033 0.751 0.396-1.214-1.034-0.752h1.277l0.395-1.215 0.395 1.215H19.915zM16.474 38.779l-1.034-0.752-1.032 0.752 0.395-1.217-1.033-0.75h1.277l0.394-1.215 0.396 1.215h1.276l-1.033 0.75L16.474 38.779zM16.079 32.703l0.396 1.215-1.034-0.75-1.032 0.75 0.395-1.215-1.033-0.752h1.277l0.394-1.213 0.396 1.213h1.276L16.079 32.703zM14.282 34.449l-1.033 0.752 0.396 1.214-1.034-0.751-1.035 0.751 0.396-1.214-1.033-0.752h1.278l0.394-1.215 0.395 1.215H14.282zM10.75 38.779l-1.032-0.752-1.033 0.752 0.395-1.217-1.033-0.75h1.277l0.395-1.215 0.395 1.215h1.277l-1.033 0.75L10.75 38.779zM10.356 32.849l0.394 1.215-1.032-0.75-1.033 0.75 0.395-1.215-1.033-0.75h1.277l0.395-1.215 0.395 1.215h1.277L10.356 32.849zM26.493 27.008l0.396-1.214 0.395 1.214h1.276l-1.032 0.751 0.394 1.214-1.032-0.75-1.033 0.75 0.395-1.214-1.033-0.751H26.493zM23.997 28.294l0.396 1.215h1.276l-1.032 0.75 0.394 1.215-1.033-0.75-1.033 0.75 0.396-1.215-1.034-0.75h1.277L23.997 28.294zM20.77 27.008l0.395-1.214 0.394 1.214h1.277l-1.033 0.751 0.396 1.214-1.033-0.75-1.034 0.75 0.396-1.214-1.033-0.751H20.77zM18.242 28.294l0.395 1.215h1.278l-1.034 0.75 0.395 1.215-1.033-0.75-1.033 0.75 0.396-1.215-1.034-0.75h1.277L18.242 28.294zM15.046 27.008l0.394-1.214 0.396 1.214h1.276l-1.033 0.751 0.396 1.214-1.034-0.75-1.032 0.75 0.395-1.214-1.033-0.751H15.046zM12.609 28.294l0.395 1.215h1.277l-1.033 0.75 0.396 1.215-1.034-0.75-1.034 0.75 0.396-1.215-1.033-0.75h1.278L12.609 28.294zM9.323 27.008l0.395-1.214 0.395 1.214h1.277l-1.033 0.751 0.394 1.214-1.032-0.75-1.033 0.75 0.395-1.214-1.033-0.751H9.323zM6.885 28.294l0.396 1.215h1.277l-1.034 0.75 0.395 1.215-1.033-0.75-1.033 0.75 0.395-1.215-1.034-0.75h1.278L6.885 28.294zM3.689 27.008l0.395-1.214 0.395 1.214h1.278l-1.034 0.751 0.395 1.214-1.033-0.75-1.033 0.75 0.395-1.214-1.032-0.751H3.689zM3.689 31.951l0.395-1.213 0.395 1.213h1.278l-1.034 0.752 0.395 1.215-1.033-0.75-1.033 0.75 0.395-1.215-1.032-0.752H3.689zM3.689 36.812l0.395-1.215 0.395 1.215h1.278l-1.034 0.75 0.395 1.217-1.033-0.752L3.05 38.779l0.395-1.217-1.032-0.75H3.689zM3.689 41.738l0.395-1.214 0.395 1.214h1.278L4.722 42.49l0.395 1.215-1.033-0.75-1.033 0.75 0.395-1.215-1.032-0.752H3.689zM5.117 48.645l-1.033-0.751L3.05 48.645l0.395-1.216L2.413 46.68h1.276l0.395-1.216 0.395 1.216h1.278l-1.034 0.749L5.117 48.645zM6.885 45.388l-1.033 0.751 0.395-1.215-1.034-0.751h1.278l0.395-1.214 0.396 1.214h1.277l-1.034 0.751 0.395 1.215L6.885 45.388zM10.75 48.645l-1.032-0.751-1.033 0.751 0.395-1.216L8.045 46.68h1.277l0.395-1.216 0.395 1.216h1.277l-1.033 0.749L10.75 48.645zM12.609 45.388l-1.034 0.751 0.396-1.215-1.033-0.751h1.278l0.394-1.214 0.395 1.214h1.277l-1.033 0.751 0.396 1.215L12.609 45.388zM16.474 48.645l-1.034-0.751-1.032 0.751 0.395-1.216-1.033-0.749h1.277l0.394-1.216 0.396 1.216h1.276l-1.033 0.749L16.474 48.645zM18.242 45.299l-1.033 0.751 0.396-1.215-1.034-0.752h1.277l0.395-1.214 0.395 1.214h1.278l-1.034 0.752 0.395 1.215L18.242 45.299zM22.198 48.735l-1.033-0.751-1.034 0.751 0.396-1.216-1.033-0.75h1.277l0.395-1.215 0.394 1.215h1.277l-1.033 0.75L22.198 48.735zM23.997 45.388l-1.033 0.752 0.396-1.216-1.034-0.751h1.277l0.395-1.214 0.396 1.214h1.276l-1.032 0.751 0.394 1.216L23.997 45.388zM27.92 48.645l-1.032-0.751-1.033 0.751 0.395-1.216-1.033-0.749h1.276l0.396-1.216 0.395 1.216h1.276l-1.032 0.749L27.92 48.645zM29.661 45.388l-1.034 0.752 0.396-1.216-1.033-0.751h1.276l0.396-1.214 0.394 1.214h1.278l-1.034 0.751 0.396 1.216L29.661 45.388zM33.525 48.645l-1.034-0.751-1.034 0.751 0.396-1.216-1.033-0.749h1.278l0.394-1.216 0.395 1.216h1.277l-1.033 0.749L33.525 48.645zM33.129 42.49l0.396 1.215-1.034-0.75-1.034 0.75 0.396-1.215-1.033-0.752h1.278l0.394-1.214 0.395 1.214h1.277L33.129 42.49zM33.129 37.562l0.396 1.217-1.034-0.752-1.034 0.752 0.396-1.217-1.033-0.75h1.278l0.394-1.215 0.395 1.215h1.277L33.129 37.562zM33.129 32.703l0.396 1.215-1.034-0.75-1.034 0.75 0.396-1.215-1.033-0.752h1.278l0.394-1.213 0.395 1.213h1.277L33.129 32.703zM33.129 27.759l0.396 1.214-1.034-0.75-1.034 0.75 0.396-1.214-1.033-0.751h1.278l0.394-1.214 0.395 1.214h1.277L33.129 27.759z" fill="#ee7ddc" data-fill-palette-color="accent"></path><polygon points="8.01,68.148 1.351,68.148 1.351,71.478    " fill="#ee7ddc" data-fill-palette-color="accent"></polygon><polygon points="1.351,60.974 1.351,64.589 15.127,64.589 22.357,60.974    " fill="#ee7ddc" data-fill-palette-color="accent"></polygon><polygon points="1.351,53.8 1.351,57.416 29.473,57.416 36.704,53.8    " fill="#ee7ddc" data-fill-palette-color="accent"></polygon><polygon points="35.584,46.597 35.584,50.212 43.88,50.212 51.109,46.597    " fill="#ee7ddc" data-fill-palette-color="accent"></polygon><polygon points="35.579,39.256 35.579,42.872 58.561,42.872 65.791,39.256    " fill="#ee7ddc" data-fill-palette-color="accent"></polygon><polygon points="35.579,32.083 35.579,35.697 72.909,35.697 80.139,32.083    " fill="#ee7ddc" data-fill-palette-color="accent"></polygon></g></g><polygon points="87.259,28.522 94.489,24.908 35.579,24.908 35.579,28.522  " fill="#ee7ddc" data-fill-palette-color="accent"></polygon></g></svg></g></svg></g></svg></g></svg></g></svg></g><defs></defs></svg><rect width="395.52" height="128.4412699306319" fill="none" stroke="none" visibility="hidden"></rect></g></svg></g></svg>