<svg xmlns="http://www.w3.org/2000/svg" version="1.1" xmlnsXlink="http://www.w3.org/1999/xlink" xmlnsSvgjs="http://svgjs.dev/svgjs" width="1000" height="222" viewBox="0 0 1000 222"><g transform="matrix(1,0,0,1,-0.6060606060606233,0.045561504352249926)"><svg viewBox="0 0 396 88" data-background-color="#0b022d" preserveAspectRatio="xMidYMid meet" height="222" width="1000" xmlns="http://www.w3.org/2000/svg" xmlnsXlink="http://www.w3.org/1999/xlink"><g id="tight-bounds" transform="matrix(1,0,0,1,0.2400000000000091,-0.018060416139633162)"><svg viewBox="0 0 395.52 88.03612083227927" height="88.03612083227927" width="395.52"><g><svg viewBox="0 0 534.9240738321266 119.06513046111493" height="88.03612083227927" width="395.52"><g transform="matrix(1,0,0,1,0,16.455455801789405)"><svg viewBox="0 0 395.52 86.15421885753612" height="86.15421885753612" width="395.52"><g><svg viewBox="0 0 395.52 86.15421885753612" height="86.15421885753612" width="395.52"><g><svg viewBox="0 0 395.52 86.15421885753612" height="86.15421885753612" width="395.52"><g transform="matrix(1,0,0,1,0,0)"><svg width="395.52" viewBox="2.49 -30.66 141.88 30.9" height="86.15421885753612" data-palette-color="#f7fff7"><path d="M15.87 0.24Q9.33 0.24 5.91-3.53 2.49-7.3 2.49-14.94L2.49-14.94Q2.49-30.66 16.53-30.66L16.53-30.66Q18.58-30.66 20.51-30.24 22.44-29.81 23.63-29.17 24.83-28.54 24.83-27.95L24.83-27.95Q24.83-27.59 24.57-26.98 24.32-26.37 23.97-25.9 23.63-25.44 23.36-25.44L23.36-25.44Q23.24-25.44 22.68-25.76L22.68-25.76Q21.41-26.44 20.02-26.9 18.63-27.37 16.63-27.37L16.63-27.37Q11.11-27.37 8.76-24.33 6.42-21.29 6.42-15.33L6.42-15.33Q6.42-9.72 8.61-6.38 10.79-3.05 16.16-3.05L16.16-3.05Q17.8-3.05 19.32-3.21 20.85-3.37 21.75-3.61L21.75-3.61 21.75-12.38 16.67-12.38Q16.21-12.38 16-12.68 15.8-12.99 15.8-13.67L15.8-13.67 15.8-14.38Q15.8-15.06 16-15.37 16.21-15.67 16.67-15.67L16.67-15.67 24.27-15.67Q24.95-15.67 25.27-15.37 25.59-15.06 25.59-14.38L25.59-14.38 25.59-2.88Q25.59-1.2 22.85-0.48 20.12 0.24 15.87 0.24L15.87 0.24ZM35.13 0.07Q33.37 0.07 33.37-0.88L33.37-0.88 33.37-29.52Q33.37-30.49 35.13-30.49L35.13-30.49 35.47-30.49Q37.2-30.49 37.2-29.52L37.2-29.52 37.2-0.88Q37.2 0.07 35.47 0.07L35.47 0.07 35.13 0.07ZM46.94 0Q46.26 0 45.94-0.32 45.62-0.63 45.62-1.29L45.62-1.29 45.62-29.08Q45.62-29.76 45.94-30.07 46.26-30.37 46.94-30.37L46.94-30.37 62.08-30.37Q62.54-30.37 62.75-30.08 62.96-29.79 62.96-29.08L62.96-29.08 62.96-28.37Q62.96-27.71 62.75-27.39 62.54-27.08 62.08-27.08L62.08-27.08 49.46-27.08 49.46-17.19 60.79-17.19Q61.25-17.19 61.46-16.87 61.66-16.55 61.66-15.87L61.66-15.87 61.66-15.21Q61.66-14.53 61.46-14.22 61.25-13.92 60.79-13.92L60.79-13.92 49.46-13.92 49.46-3.3 62.13-3.3Q62.59-3.3 62.8-2.99 63.01-2.69 63.01-2L63.01-2 63.01-1.29Q63.01-0.63 62.8-0.32 62.59 0 62.13 0L62.13 0 46.94 0ZM70.65 0Q69.96 0 69.65-0.32 69.33-0.63 69.33-1.29L69.33-1.29 69.33-29.08Q69.33-29.76 69.65-30.07 69.96-30.37 70.65-30.37L70.65-30.37 78.41-30.37Q81.58-30.37 83.76-29.42 85.93-28.47 87.03-26.73 88.13-25 88.13-22.71L88.13-22.71Q88.13-21.29 87.47-19.89 86.81-18.48 85.71-17.47 84.61-16.46 83.37-16.11L83.37-16.11 83.37-15.94Q83.37-16.11 85.05-15.3 86.74-14.48 88.09-12.88 89.45-11.28 89.45-8.74L89.45-8.74Q89.45 0 78.12 0L78.12 0 70.65 0ZM73.16-17.29L78.22-17.29Q79.92-17.29 81.29-17.96 82.66-18.63 83.43-19.79 84.2-20.95 84.2-22.36L84.2-22.36Q84.2-24.8 82.73-25.94 81.27-27.08 78.04-27.08L78.04-27.08 73.16-27.08 73.16-17.29ZM73.16-3.3L79.51-3.3Q82.37-3.3 83.93-4.8 85.49-6.3 85.49-8.91L85.49-8.91Q85.49-11.33 83.78-12.66 82.07-13.99 78.75-13.99L78.75-13.99 73.16-13.99 73.16-3.3ZM102.8 0.07Q101.06 0.07 101.06-0.88L101.06-0.88 101.06-15.58 91.98-28.96Q91.64-29.42 91.64-29.74L91.64-29.74Q91.64-30.49 93.64-30.49L93.64-30.49 94.11-30.49Q94.84-30.49 95.29-30.35 95.74-30.2 95.99-29.83L95.99-29.83 103.12-19.17 110.39-29.86Q110.78-30.49 112.34-30.49L112.34-30.49 112.64-30.49Q113.54-30.44 113.94-30.26 114.35-30.08 114.35-29.74L114.35-29.74Q114.35-29.52 113.98-28.96L113.98-28.96 104.9-15.45 104.9-0.88Q104.9 0.07 103.14 0.07L103.14 0.07 102.8 0.07ZM130.97 0.24Q124.45 0.24 121.03-3.71 117.61-7.67 117.61-15.28L117.61-15.28Q117.61-22.88 121.02-26.77 124.43-30.66 130.97-30.66L130.97-30.66Q137.54-30.66 140.95-26.77 144.37-22.88 144.37-15.28L144.37-15.28Q144.37-7.67 140.95-3.71 137.54 0.24 130.97 0.24L130.97 0.24ZM130.97-3.05Q135.56-3.05 138-6.19 140.44-9.33 140.44-15.28L140.44-15.28Q140.44-21.24 138.01-24.3 135.58-27.37 130.97-27.37L130.97-27.37Q126.38-27.37 123.96-24.3 121.55-21.24 121.55-15.28L121.55-15.28Q121.55-9.3 123.96-6.18 126.38-3.05 130.97-3.05L130.97-3.05Z" opacity="1" transform="matrix(1,0,0,1,0,0)" fill="#f7fff7" class="undefined-text-0" data-fill-palette-color="primary" id="text-0"></path></svg></g></svg></g></svg></g></svg></g><g transform="matrix(1,0,0,1,415.85894337101166,0)"><svg viewBox="0 0 119.06513046111493 119.06513046111493" height="119.06513046111493" width="119.06513046111493"><g><svg xmlns="http://www.w3.org/2000/svg" xmlnsXlink="http://www.w3.org/1999/xlink" version="1.1" x="0" y="0" viewBox="5 5 90 90" style="enable-background:new 0 0 100 100;" xmlSpace="preserve" height="119.06513046111493" width="119.06513046111493" class="icon-icon-0" data-fill-palette-color="accent" id="icon-0"><g fill="#ee7ddc" data-fill-palette-color="accent"><path d="M84 5H16C9.9 5 5 9.6 5 15.3V67c0 5.7 4.9 10.3 11 10.3h7.2v15.3c0 0.9 0.6 1.8 1.5 2.2 0.4 0.2 0.7 0.2 1.1 0.2 0.6 0 1.2-0.2 1.7-0.5l22.7-17.2H84c6.1 0 11-4.6 11-10.3V15.3C95 9.6 90.1 5 84 5zM37.4 50h-15V30.3h14.5v3.5H26.5V38H36v3.4h-9.6v5.1h10.9V50zM56.5 50h-4.1l-8-14v14h-3.8V30.3h4.3L52.7 44V30.3h3.8V50zM77.8 50H75l-0.4-2.5c-0.8 0.9-1.5 1.6-2.1 2-1.1 0.7-2.4 1-4 1-2.6 0-4.8-0.9-6.4-2.7-1.7-1.8-2.6-4.3-2.6-7.5 0-3.2 0.9-5.8 2.6-7.7s4.1-2.9 7-2.9c2.5 0 4.5 0.6 6 1.9 1.5 1.3 2.4 2.9 2.6 4.8h-4.1c-0.3-1.3-1.1-2.3-2.3-2.8-0.7-0.3-1.4-0.4-2.3-0.4-1.6 0-2.9 0.6-3.9 1.8-1 1.2-1.5 3-1.5 5.4 0 2.4 0.6 4.1 1.7 5.1s2.4 1.5 3.8 1.5c1.4 0 2.5-0.4 3.4-1.2 0.9-0.8 1.4-1.8 1.6-3.1h-4.6v-3.3h8.2V50z" fill="#ee7ddc" data-fill-palette-color="accent"></path></g></svg></g></svg></g></svg></g><defs></defs></svg><rect width="395.52" height="88.03612083227927" fill="none" stroke="none" visibility="hidden"></rect></g></svg></g></svg>